PathFileType	4	(X/Y/Z)	TRC_standard
DataRate	CameraRate	NumFrames	NumMarkers	Units	OrigDataRate	OrigDataStartFrame	OrigNumFrames
100.00	100.00	       4	33	mm	100.00	559	       2234
Frame#	Time	T10			C7			CLAV			RACR1			LACR1			RPSI			LPSI			RASI			LASI			LTH2			LTH1			RTH2			RTH3			RTH1			RLFC			RTB1			RTB3			RTB2			LLFC			LTB1			LTB3			LTB2			LLMAL			LMMAL			RLMAL			RCAL			RMT5			RMT1			LMT5			LMT1			LTH3			LCAL			LToe			
		X1	Y1	Z1	X2	Y2	Z2	X3	Y3	Z3	X4	Y4	Z4	X5	Y5	Z5	X6	Y6	Z6	X7	Y7	Z7	X8	Y8	Z8	X9	Y9	Z9	X10	Y10	Z10	X11	Y11	Z11	X12	Y12	Z12	X13	Y13	Z13	X14	Y14	Z14	X15	Y15	Z15	X16	Y16	Z16	X17	Y17	Z17	X18	Y18	Z18	X19	Y19	Z19	X20	Y20	Z20	X21	Y21	Z21	X22	Y22	Z22	X23	Y23	Z23	X24	Y24	Z24	X25	Y25	Z25	X26	Y26	Z26	X27	Y27	Z27	X28	Y28	Z28	X29	Y29	Z29	X30	Y30	Z30	X31	Y31	Z31	X32	Y32	Z32	X33	Y33	Z33	
559	5.580000	728.198059	1230.469971	-673.716919	727.936951	1494.454224	-569.402832	735.596313	1344.055176	-460.549500	569.036926	1446.582275	-536.726807	906.407959	1436.114624	-553.366089	658.691406	1017.839966	-727.767944	746.991638	1019.520386	-729.311890	595.066772	993.513916	-492.164520	848.790894	984.431763	-498.728455	904.144897	766.619568	-571.864258	872.865112	847.161499	-516.624390	601.531677	731.125610	-442.130890	548.605347	789.342224	-482.440765	617.208008	844.658386	-454.308258	594.722229	508.698029	-477.200012	646.997742	401.059296	-439.390594	621.802551	321.521637	-459.242401	648.255920	270.767761	-454.825470	879.572205	496.266479	-644.678162	840.268616	378.515900	-674.975037	864.642151	347.017334	-740.681030	829.057251	298.639130	-766.542358	844.242004	201.001175	-948.749268	792.273865	226.474319	-1002.820129	631.865295	78.275505	-511.303345	672.616150	37.507542	-577.600769	635.682251	44.460644	-403.828522	713.237854	49.679958	-379.656921	845.441956	65.309639	-949.395630	772.877319	60.051659	-916.866028	887.603333	700.982788	-551.481812	0.000000	0.000000	0.000000	0.000000	0.000000	0.000000	
560	5.590000	726.788208	1231.158325	-673.206238	726.906372	1495.185791	-568.985352	734.770020	1344.900146	-460.117737	568.145386	1447.545166	-535.887878	905.457947	1436.842651	-553.428894	657.477356	1018.547791	-727.298035	745.793884	1019.760925	-728.830017	593.629883	994.393188	-491.545349	847.323120	985.196533	-498.148346	905.495605	768.367493	-569.717651	871.658264	848.643127	-514.655579	600.579834	730.507507	-443.566620	547.537170	789.216248	-483.235535	615.754578	844.464294	-454.363007	594.352234	508.252899	-480.990662	647.011780	400.319855	-444.400879	621.819397	320.849426	-464.752533	648.492615	270.115295	-460.868011	880.243042	496.358429	-635.227966	841.346436	378.771149	-665.544189	865.291138	347.970673	-731.972961	829.914551	299.779541	-758.104736	844.375122	204.581879	-941.658936	792.036560	231.134232	-995.107483	632.128357	78.375992	-519.024780	672.543884	37.743587	-585.628723	635.675293	44.435570	-411.696686	713.479248	49.121937	-387.250793	846.066956	68.318565	-945.254883	773.569458	61.742809	-912.394592	887.692322	702.070679	-546.018982	0.000000	0.000000	0.000000	0.000000	0.000000	0.000000	
561	5.600000	725.429626	1231.819824	-672.789185	725.940125	1495.882690	-568.637878	734.006042	1345.688477	-459.774414	567.316956	1448.479492	-535.135742	904.570435	1437.513794	-553.577148	656.345764	1019.212463	-726.971008	744.673645	1019.977539	-728.471924	592.202759	995.212891	-491.081573	845.871765	985.936707	-497.656677	906.564880	770.028259	-567.415466	870.482361	850.162781	-512.771790	599.638916	729.813782	-445.234711	546.485229	789.017212	-484.256104	614.309021	844.186401	-454.608154	593.986816	507.776642	-485.034729	647.004944	399.594940	-449.601532	621.830933	320.191864	-470.419952	648.730835	269.489075	-467.034668	880.901550	496.582825	-625.570740	842.330688	379.137512	-655.723083	865.857788	348.892609	-722.779602	830.621460	300.874786	-749.115051	844.365967	207.724701	-933.820984	791.652283	234.928009	-986.857788	632.439819	78.503517	-526.776611	672.526062	37.965271	-593.646240	635.692871	44.482349	-419.583160	713.713989	48.665737	-394.867218	846.622253	71.208794	-939.192993	774.795288	63.454571	-906.316528	887.826538	703.274292	-540.629333	0.000000	0.000000	0.000000	0.000000	0.000000	0.000000	
562	5.610000	724.123230	1232.449951	-672.466980	725.037048	1496.540161	-568.361450	733.304260	1346.416016	-459.520538	566.549622	1449.378540	-534.470581	903.743896	1438.124512	-553.813293	655.301392	1019.831970	-726.784363	743.635864	1020.170715	-728.236023	590.789551	995.968872	-490.773224	844.440674	986.647827	-497.253723	907.335144	771.589539	-564.940613	869.338074	851.713562	-510.980347	598.711060	729.052734	-447.122772	545.453613	788.751099	-485.492645	612.877869	843.828796	-455.038910	593.622192	507.274933	-489.315918	646.973877	398.883759	-454.982178	621.833313	319.549133	-476.240570	648.964478	268.887329	-473.324066	881.528870	496.949097	-615.753235	843.203247	379.620453	-645.551147	866.329102	349.777435	-713.133118	831.163147	301.912292	-739.595032	844.209290	210.367783	-925.246216	791.109131	237.773010	-978.086487	632.790039	78.650970	-534.568970	672.556152	38.174286	-601.669800	635.733704	44.581688	-427.499176	713.939148	48.293774	-402.522400	846.982178	73.881775	-931.110291	776.658386	65.155045	-898.664429	887.989197	704.596680	-535.326355	0.000000	0.000000	0.000000	0.000000	0.000000	0.000000	
